<svg xmlns="http://www.w3.org/2000/svg" width="16" height="16" class="icon" viewBox="0 0 1024 1024"><path fill="#F7B500" d="M512 0a58.514 58.514 0 0 1 58.514 58.514v73.143a58.514 58.514 0 1 1-117.028 0V58.514A58.514 58.514 0 0 1 512 0m0 833.829a58.514 58.514 0 0 1 58.514 58.514v73.143a58.514 58.514 0 1 1-117.028 0v-73.143A58.514 58.514 0 0 1 512 833.829M1024 512a58.514 58.514 0 0 1-58.514 58.514h-73.143a58.514 58.514 0 1 1 0-117.028h73.143A58.514 58.514 0 0 1 1024 512m-833.829 0a58.514 58.514 0 0 1-58.514 58.514H58.514a58.514 58.514 0 1 1 0-117.028h73.143A58.514 58.514 0 0 1 190.171 512m683.872-362.043a58.514 58.514 0 0 1 0 82.754l-51.727 51.727a58.514 58.514 0 1 1-82.754-82.754l51.727-51.727a58.514 58.514 0 0 1 82.754 0M284.438 739.562a58.514 58.514 0 0 1 0 82.754l-51.727 51.727a58.514 58.514 0 1 1-82.754-82.754l51.727-51.727a58.514 58.514 0 0 1 82.754 0m589.605 134.48a58.514 58.514 0 0 1-82.754 0l-51.727-51.726a58.514 58.514 0 0 1 82.754-82.754l51.727 51.727a58.514 58.514 0 0 1 0 82.754M284.438 284.439a58.514 58.514 0 0 1-82.754 0l-51.727-51.727a58.514 58.514 0 1 1 82.754-82.754l51.727 51.727a58.514 58.514 0 0 1 0 82.754M512 731.428c-121.183 0-219.429-98.245-219.429-219.428S390.817 292.571 512 292.571 731.429 390.817 731.429 512 633.183 731.429 512 731.429"/></svg>