<?xml version="1.0" standalone="no"?><!DOCTYPE svg PUBLIC "-//W3C//DTD SVG 1.1//EN" "http://www.w3.org/Graphics/SVG/1.1/DTD/svg11.dtd"><svg t="1702616667088" class="icon" viewBox="0 0 1024 1024" version="1.1" xmlns="http://www.w3.org/2000/svg" p-id="4449" xmlns:xlink="http://www.w3.org/1999/xlink" width="128" height="128"><path d="M854.256 371.344c-16.896-6.544-35.388-12.696-55.012-18.304 5.028-20.036 9.02-39.348 11.868-57.44 16.16-102.476-1.64-174.532-50.108-202.896-14.144-8.28-30.36-12.48-48.188-12.48-42.688 0-94.628 24.188-150.208 69.944-14.04 11.556-28.544 24.712-43.144 39.136-14.616-14.44-29.12-27.6-43.14-39.14-55.584-45.752-107.532-69.936-150.216-69.936-17.828 0-34.04 4.2-48.196 12.48-48.468 28.36-66.26 100.42-50.1 202.888 2.848 18.092 6.84 37.408 11.864 57.448-19.628 5.6-38.12 11.76-55.02 18.308-95.624 37.052-148.292 88.7-148.292 145.432 0 56.724 52.668 108.376 148.296 145.432 16.888 6.544 35.388 12.696 55.016 18.308-5.02 20.004-9.012 39.32-11.864 57.44-16.164 102.476 1.628 174.528 50.1 202.896 14.144 8.28 30.36 12.476 48.188 12.476 42.688 0 94.628-24.18 150.212-69.94 14.036-11.548 28.54-24.708 43.152-39.14 14.6 14.42 29.104 27.576 43.148 39.136 55.58 45.752 107.52 69.944 150.212 69.944 17.828 0 34.04-4.2 48.188-12.48 48.468-28.36 66.26-100.42 50.104-202.896-2.852-18.112-6.844-37.432-11.864-57.44 19.6-5.6 38.096-11.756 55.008-18.304 95.628-37.056 148.292-88.704 148.292-145.432 0-56.736-52.668-108.388-148.296-145.44z m-141.708-251.72c11.112 0 20.88 2.42 29.032 7.188 40.228 23.54 47.988 106.416 20.368 216.572-40.94-9.524-85.272-16.544-131.832-20.872-26.976-38.708-55.14-74.12-83.752-105.3 62.824-62.048 123.308-97.588 166.184-97.588zM349.14 616.448a1265.72 1265.72 0 0 0 31.44 52.192c-32.564-3.96-63.856-9.352-93.12-16.06 8.892-29.032 19.928-59.2 32.84-89.776 9.18 18.116 18.8 36 28.84 53.648z m-61.68-235.468c29.28-6.712 60.568-12.108 93.12-16.06a1263.48 1263.48 0 0 0-31.444 52.188 1265.2 1265.2 0 0 0-28.84 53.644c-12.896-30.564-23.928-60.724-32.832-89.776z m53.528 135.792a1242.72 1242.72 0 0 1 41.8-79.976 1240.016 1240.016 0 0 1 47.456-76.72c29.692-2.188 59.448-3.28 89.216-3.264 30.112 0 60.12 1.1 89.224 3.268a1238.588 1238.588 0 0 1 47.448 76.716 1243.88 1243.88 0 0 1 41.808 79.984 1242.016 1242.016 0 0 1-41.804 79.984 1238.476 1238.476 0 0 1-47.456 76.72c-29.096 2.172-59.108 3.264-89.22 3.264-30.108 0-60.116-1.092-89.212-3.264a1241.064 1241.064 0 0 1-47.452-76.72 1241.584 1241.584 0 0 1-41.808-79.996z m348.792 99.68a1256.72 1256.72 0 0 0 28.84-53.652c12.912 30.58 23.952 60.752 32.848 89.78-29.268 6.708-60.56 12.1-93.128 16.06a1263.92 1263.92 0 0 0 31.44-52.188z m0-199.348a1263.328 1263.328 0 0 0-31.44-52.18c32.56 3.952 63.852 9.352 93.128 16.06-8.908 29.052-19.944 59.216-32.844 89.776a1262.48 1262.48 0 0 0-28.84-53.656z m-110.052-98.168a1226.096 1226.096 0 0 0-60.268-1.508c-19.768 0-40.016 0.508-60.26 1.508 19.676-26.62 39.92-51.384 60.264-73.688 20.348 22.32 40.596 47.076 60.264 73.688z m-282.388-192.12c8.152-4.768 17.92-7.188 29.032-7.188 42.876 0 103.368 35.54 166.188 97.592-28.608 31.176-56.772 66.584-83.748 105.296-46.568 4.328-90.9 11.348-131.832 20.868-27.624-110.16-19.868-193.028 20.36-216.568z m-222.12 389.96c0-47.14 66.92-95.4 174.84-126.216 12.332 40.72 28.508 83.168 48.1 126.22-19.588 43.048-35.764 85.496-48.1 126.216-107.92-30.816-174.84-79.08-174.84-126.216z m251.148 397.152c-11.112 0-20.88-2.416-29.028-7.188-40.232-23.54-47.988-106.412-20.368-216.572 40.948 9.528 85.284 16.548 131.84 20.876 26.968 38.696 55.132 74.108 83.748 105.288-62.824 62.056-123.316 97.6-166.192 97.6z m132.84-199.308c20.24 1 40.484 1.516 60.252 1.516 19.772 0 40.02-0.512 60.264-1.516-19.656 26.6-39.904 51.36-60.26 73.688-20.348-22.316-40.592-47.076-60.26-73.688z m282.368 192.12c-8.152 4.772-17.92 7.188-29.028 7.188-42.876 0-103.36-35.54-166.188-97.596 28.616-31.18 56.78-66.592 83.748-105.288 46.568-4.328 90.904-11.352 131.84-20.88 27.624 110.168 19.864 193.036-20.372 216.576z m47.292-263.744c-12.34-40.74-28.52-83.192-48.108-126.216 19.596-43.064 35.772-85.512 48.104-126.216 107.904 30.816 174.832 79.08 174.832 126.22-0.004 47.128-66.928 95.392-174.828 126.212z" fill="#367da1" p-id="4450"></path><path d="M431.344 516.696v0.008c0 48.388 38.7 87.616 86.44 87.616 47.736 0 86.432-39.228 86.432-87.616v-0.028c0-48.388-38.696-87.616-86.436-87.616-47.736 0-86.44 39.228-86.44 87.616v0.02z" fill="#367da1" p-id="4451"></path></svg>