<svg xmlns="http://www.w3.org/2000/svg" width="128" height="128" class="icon" viewBox="0 0 1024 1024"><path fill="#367da1" d="M854.256 371.344c-16.896-6.544-35.388-12.696-55.012-18.304 5.028-20.036 9.02-39.348 11.868-57.44 16.16-102.476-1.64-174.532-50.108-202.896-14.144-8.28-30.36-12.48-48.188-12.48-42.688 0-94.628 24.188-150.208 69.944-14.04 11.556-28.544 24.712-43.144 39.136-14.616-14.44-29.12-27.6-43.14-39.14-55.584-45.752-107.532-69.936-150.216-69.936-17.828 0-34.04 4.2-48.196 12.48-48.468 28.36-66.26 100.42-50.1 202.888 2.848 18.092 6.84 37.408 11.864 57.448-19.628 5.6-38.12 11.76-55.02 18.308-95.624 37.052-148.292 88.7-148.292 145.432 0 56.724 52.668 108.376 148.296 145.432 16.888 6.544 35.388 12.696 55.016 18.308-5.02 20.004-9.012 39.32-11.864 57.44-16.164 102.476 1.628 174.528 50.1 202.896 14.144 8.28 30.36 12.476 48.188 12.476 42.688 0 94.628-24.18 150.212-69.94 14.036-11.548 28.54-24.708 43.152-39.14 14.6 14.42 29.104 27.576 43.148 39.136 55.58 45.752 107.52 69.944 150.212 69.944 17.828 0 34.04-4.2 48.188-12.48 48.468-28.36 66.26-100.42 50.104-202.896-2.852-18.112-6.844-37.432-11.864-57.44 19.6-5.6 38.096-11.756 55.008-18.304 95.628-37.056 148.292-88.704 148.292-145.432 0-56.736-52.668-108.388-148.296-145.44m-141.708-251.72c11.112 0 20.88 2.42 29.032 7.188 40.228 23.54 47.988 106.416 20.368 216.572-40.94-9.524-85.272-16.544-131.832-20.872-26.976-38.708-55.14-74.12-83.752-105.3 62.824-62.048 123.308-97.588 166.184-97.588M349.14 616.448a1266 1266 0 0 0 31.44 52.192c-32.564-3.96-63.856-9.352-93.12-16.06 8.892-29.032 19.928-59.2 32.84-89.776 9.18 18.116 18.8 36 28.84 53.648zM287.46 380.98c29.28-6.712 60.568-12.108 93.12-16.06a1264 1264 0 0 0-31.444 52.188 1265 1265 0 0 0-28.84 53.644c-12.896-30.564-23.928-60.724-32.832-89.776zm53.528 135.792a1243 1243 0 0 1 41.8-79.976 1240 1240 0 0 1 47.456-76.72 1205 1205 0 0 1 89.216-3.264c30.112 0 60.12 1.1 89.224 3.268a1239 1239 0 0 1 47.448 76.716 1244 1244 0 0 1 41.808 79.984 1242 1242 0 0 1-41.804 79.984 1239 1239 0 0 1-47.456 76.72c-29.096 2.172-59.108 3.264-89.22 3.264-30.108 0-60.116-1.092-89.212-3.264a1241 1241 0 0 1-47.452-76.72 1242 1242 0 0 1-41.808-79.996zm348.792 99.68a1257 1257 0 0 0 28.84-53.652c12.912 30.58 23.952 60.752 32.848 89.78-29.268 6.708-60.56 12.1-93.128 16.06a1264 1264 0 0 0 31.44-52.188m0-199.348a1263 1263 0 0 0-31.44-52.18c32.56 3.952 63.852 9.352 93.128 16.06-8.908 29.052-19.944 59.216-32.844 89.776a1263 1263 0 0 0-28.84-53.656zm-110.052-98.168a1226 1226 0 0 0-60.268-1.508c-19.768 0-40.016.508-60.26 1.508 19.676-26.62 39.92-51.384 60.264-73.688 20.348 22.32 40.596 47.076 60.264 73.688M297.34 126.816c8.152-4.768 17.92-7.188 29.032-7.188 42.876 0 103.368 35.54 166.188 97.592-28.608 31.176-56.772 66.584-83.748 105.296-46.568 4.328-90.9 11.348-131.832 20.868-27.624-110.16-19.868-193.028 20.36-216.568M75.22 516.776c0-47.14 66.92-95.4 174.84-126.216 12.332 40.72 28.508 83.168 48.1 126.22-19.588 43.048-35.764 85.496-48.1 126.216C142.14 612.18 75.22 563.916 75.22 516.78zm251.148 397.152c-11.112 0-20.88-2.416-29.028-7.188-40.232-23.54-47.988-106.412-20.368-216.572 40.948 9.528 85.284 16.548 131.84 20.876 26.968 38.696 55.132 74.108 83.748 105.288-62.824 62.056-123.316 97.6-166.192 97.6zm132.84-199.308c20.24 1 40.484 1.516 60.252 1.516 19.772 0 40.02-.512 60.264-1.516-19.656 26.6-39.904 51.36-60.26 73.688-20.348-22.316-40.592-47.076-60.26-73.688zm282.368 192.12c-8.152 4.772-17.92 7.188-29.028 7.188-42.876 0-103.36-35.54-166.188-97.596 28.616-31.18 56.78-66.592 83.748-105.288 46.568-4.328 90.904-11.352 131.84-20.88 27.624 110.168 19.864 193.036-20.372 216.576m47.292-263.744c-12.34-40.74-28.52-83.192-48.108-126.216 19.596-43.064 35.772-85.512 48.104-126.216 107.904 30.816 174.832 79.08 174.832 126.22-.004 47.128-66.928 95.392-174.828 126.212"/><path fill="#367da1" d="M431.344 516.696v.008c0 48.388 38.7 87.616 86.44 87.616 47.736 0 86.432-39.228 86.432-87.616v-.028c0-48.388-38.696-87.616-86.436-87.616-47.736 0-86.44 39.228-86.44 87.616v.02z"/></svg>