<svg xmlns="http://www.w3.org/2000/svg" width="48" height="48" class="icon" viewBox="0 0 1024 1024"><path fill="#FDDF6D" d="M20.014 512.002a491.988 491.988 0 1 0 983.976 0 491.988 491.988 0 1 0-983.976 0"/><path fill="#FCC56B" d="M617.43 931.356c-271.716 0-491.986-220.268-491.986-491.986 0-145.168 62.886-275.632 162.888-365.684C129.054 155.124 20.014 320.828 20.014 512c0 271.716 220.268 491.986 491.986 491.986 126.548 0 241.924-47.796 329.098-126.298-67.106 34.31-143.124 53.668-223.668 53.668"/><path fill="#7F184C" d="M583.584 842.35c-109.984 0-199.146-89.162-199.146-199.146H782.73c0 109.984-89.162 199.146-199.146 199.146m-90.996-462.624c-11.054 0-20.014-8.962-20.014-20.014 0-25.816-21.002-46.818-46.818-46.818s-46.818 21.004-46.818 46.818c0 11.054-8.962 20.014-20.014 20.014-11.054 0-20.014-8.962-20.014-20.014 0-47.888 38.962-86.848 86.848-86.848s86.848 38.96 86.848 86.848c-.002 11.054-8.964 20.014-20.018 20.014m338.046 0c-11.054 0-20.014-8.962-20.014-20.014 0-25.816-21.002-46.818-46.818-46.818s-46.818 21.004-46.818 46.818c0 11.054-8.962 20.014-20.014 20.014s-20.014-8.962-20.014-20.014c0-47.888 38.962-86.848 86.848-86.848s86.848 38.96 86.848 86.848c-.004 11.054-8.964 20.014-20.018 20.014"/><path fill="#F9A880" d="M300.576 481.542c-36.536 0-66.156 29.62-66.156 66.156h132.314c-.004-36.536-29.622-66.156-66.158-66.156m577.052-8.864c-36.536 0-66.158 29.62-66.158 66.156h132.314c.002-36.538-29.616-66.156-66.156-66.156"/><path fill="#F2F2F2" d="M433.028 643.204v31.086c0 13.108 10.626 23.732 23.732 23.732h253.644c13.108 0 23.732-10.626 23.732-23.732v-31.086z"/><path fill="#FC4C59" d="M587.766 759.732c-53.832-25.01-113.568-21.376-162.01 4.564 36.4 47.442 93.642 78.058 158.06 78.058a198.4 198.4 0 0 0 79.806-16.684c-17.932-27.748-43.642-50.97-75.856-65.938"/><path fill="#FCEB88" d="M586.102 212.006a102.74 57.374 15.801 1 0 31.246-110.412 102.74 57.374 15.801 1 0-31.246 110.412"/><path d="M934.502 222.718c-57.164-83.338-136.7-147.41-230.004-185.294-10.24-4.156-21.914.774-26.076 11.016-4.158 10.242.774 21.914 11.016 26.076 86.01 34.922 159.338 94 212.05 170.846 53.956 78.664 82.48 170.864 82.48 266.638 0 260.248-211.724 471.97-471.97 471.97S40.03 772.244 40.03 512 251.752 40.03 512 40.03c11.054 0 20.014-8.962 20.014-20.014S523.054 0 512 0C229.68 0 0 229.68 0 512s229.68 512 512 512 512-229.68 512-512c0-103.894-30.948-203.926-89.498-289.282"/><path d="M378.936 359.712c0-25.816 21.004-46.818 46.818-46.818s46.818 21.004 46.818 46.818c0 11.054 8.962 20.014 20.014 20.014 11.054 0 20.014-8.962 20.014-20.014 0-47.888-38.96-86.848-86.848-86.848s-86.848 38.96-86.848 86.848c0 11.054 8.962 20.014 20.014 20.014 11.058 0 20.018-8.96 20.018-20.014m338.046 0c0-25.816 21.004-46.818 46.818-46.818s46.818 21.004 46.818 46.818c0 11.054 8.962 20.014 20.014 20.014s20.014-8.962 20.014-20.014c0-47.888-38.96-86.848-86.848-86.848s-86.848 38.96-86.848 86.848c0 11.054 8.962 20.014 20.014 20.014s20.018-8.96 20.018-20.014m-352.56 283.492c0 120.846 98.314 219.16 219.16 219.16s219.16-98.314 219.16-219.16c0-11.054-8.962-20.014-20.014-20.014H384.436c-11.052-.002-20.014 8.96-20.014 20.014m397.182 20.014c-9.984 89.39-86.012 159.116-178.022 159.116S415.544 752.608 405.56 663.218zM601.722 34.334a20.014 20.014 0 1 0 40.028 0 20.014 20.014 0 1 0-40.028 0"/></svg>