<svg xmlns="http://www.w3.org/2000/svg" width="32" height="32" viewBox="0 0 48 48"><path fill="#ffe500" d="M4 21.5a20 20 0 1 0 40 0 20 20 0 1 0-40 0"/><path fill="#ebcb00" d="M24 1.5a20 20 0 1 0 20 20 20 20 0 0 0-20-20m0 37a18.25 18.25 0 1 1 18.25-18.25A18.25 18.25 0 0 1 24 38.5"/><path fill="#fff48c" d="M18 5.5a6 1.5 0 1 0 12 0 6 1.5 0 1 0-12 0"/><path fill="#45413c" d="M8 45.5a16 1.5 0 1 0 32 0 16 1.5 0 1 0-32 0" opacity=".15"/><path fill="none" stroke="#45413c" stroke-linecap="round" stroke-linejoin="round" d="M4 21.5a20 20 0 1 0 40 0 20 20 0 1 0-40 0"/><path fill="none" stroke="#45413c" stroke-linecap="round" d="M29 29.48a9 9 0 0 1-10 0"/><path fill="#ffaa54" d="M38.5 26.5c0 .83-1.12 1.5-2.5 1.5s-2.5-.67-2.5-1.5S34.62 25 36 25s2.5.67 2.5 1.5m-29 0c0 .83 1.12 1.5 2.5 1.5s2.5-.67 2.5-1.5S13.38 25 12 25s-2.5.67-2.5 1.5"/><path fill="none" stroke="#45413c" stroke-linecap="round" stroke-linejoin="round" d="M10 22.75a1.75 1.75 0 0 1 3.5 0m21 0a1.75 1.75 0 0 1 3.5 0"/></svg>