<svg xmlns="http://www.w3.org/2000/svg" width="48" height="48" class="icon" viewBox="0 0 1024 1024"><path fill="#FFE55C" d="M245.76 511.317a266.24 266.24 0 1 0 532.48 0 266.24 266.24 0 1 0-532.48 0"/><path fill="#4D4D4D" d="M635.563 482.645c-11.606 0-20.48-8.874-20.48-20.48V409.6c0-11.605 8.874-20.48 20.48-20.48s20.48 8.875 20.48 20.48v52.565c0 11.606-8.875 20.48-20.48 20.48m-225.28-4.096q-8.192 0-14.336-6.144l-36.864-36.864c-8.192-8.192-8.192-21.162 0-28.672 8.192-8.192 21.162-8.192 28.672 0l36.864 36.864c8.192 8.192 8.192 21.163 0 28.672q-6.144 6.144-14.336 6.144"/><path fill="#4D4D4D" d="M410.283 478.55h-52.566c-11.605 0-20.48-8.875-20.48-20.48s8.875-20.48 20.48-20.48h52.566c11.605 0 20.48 8.874 20.48 20.48s-8.875 20.48-20.48 20.48m105.13 183.637c-51.882 0-101.034-23.211-133.802-63.488-7.51-8.875-6.144-21.846 2.73-28.672 8.875-7.51 21.846-6.144 28.672 2.73 25.259 30.72 62.806 48.47 102.4 48.47s77.142-17.75 102.4-48.47c7.51-8.874 19.798-10.24 28.672-2.73s10.24 19.797 2.731 28.672c-33.45 40.277-81.92 63.488-133.803 63.488"/><path fill="#4D4D4D" d="M512 873.813c-199.339 0-361.813-162.474-361.813-361.813S312.66 150.187 512 150.187 873.813 312.66 873.813 512 711.34 873.813 512 873.813m0-682.666c-176.81 0-320.853 144.042-320.853 320.853S335.189 832.853 512 832.853 832.853 688.811 832.853 512 688.811 191.147 512 191.147"/></svg>