<svg xmlns="http://www.w3.org/2000/svg" width="48" height="48" class="icon" viewBox="0 0 1024 1024"><path fill="#FDDF6D" d="M19.374 512.002a491.988 491.988 0 1 0 983.976 0 491.988 491.988 0 1 0-983.976 0"/><path fill="#FCC56B" d="M616.796 931.354c-271.716 0-491.986-220.268-491.986-491.986 0-145.168 62.886-275.632 162.888-365.684C128.42 155.124 19.382 320.824 19.382 512c0 271.716 220.268 491.986 491.986 491.986 126.548 0 241.924-47.796 329.098-126.298-67.106 34.308-143.128 53.666-223.67 53.666"/><path fill="#7F184C" d="M582.95 842.35c-109.984 0-199.146-89.162-199.146-199.146h398.292c.002 109.984-89.16 199.146-199.146 199.146m-90.996-462.626a20.01 20.01 0 0 1-20.014-20.014c0-25.816-21.002-46.822-46.818-46.822s-46.818 21.004-46.818 46.822a20.01 20.01 0 0 1-20.014 20.014 20.01 20.01 0 0 1-20.014-20.014c0-47.888 38.962-86.85 86.848-86.85s86.848 38.962 86.848 86.85c-.004 11.056-8.962 20.014-20.018 20.014m338.048 0a20.01 20.01 0 0 1-20.014-20.014c0-25.816-21.002-46.822-46.818-46.822s-46.822 21.004-46.822 46.822a20.01 20.01 0 0 1-20.014 20.014 20.01 20.01 0 0 1-20.014-20.014c0-47.888 38.962-86.85 86.85-86.85 47.886 0 86.848 38.962 86.848 86.85-.002 11.056-8.96 20.014-20.016 20.014"/><path fill="#F9A880" d="M299.94 481.54c-36.536 0-66.158 29.62-66.158 66.158h132.314c.002-36.538-29.62-66.158-66.156-66.158m577.056-8.862c-36.536 0-66.156 29.62-66.156 66.158h132.314c-.002-36.54-29.622-66.158-66.158-66.158"/><path fill="#F2F2F2" d="M432.394 643.204v31.086c0 13.108 10.626 23.732 23.732 23.732H709.77c13.108 0 23.732-10.626 23.732-23.732v-31.086z"/><path fill="#FC4C59" d="M587.13 759.728c-53.832-25.01-113.568-21.376-162.01 4.564 36.4 47.442 93.642 78.058 158.06 78.058a198.4 198.4 0 0 0 79.806-16.684c-17.928-27.744-43.638-50.97-75.856-65.938"/><path fill="#0DAED3" d="M254.226 298.478c0 57.154-46.332 103.486-103.486 103.486S47.254 355.632 47.254 298.478 150.74 92.274 150.74 92.274s103.486 149.05 103.486 206.204"/><path d="M511.368 0c-117.676 0-231.146 40.32-322.1 113.994-10.908-16.914-19.288-29.1-22.09-33.138a20.008 20.008 0 0 0-32.876 0C123.344 96.638 27.24 236.832 27.24 298.478c0 68.1 55.404 123.502 123.502 123.502s123.502-55.404 123.502-123.502c0-36.558-33.8-100.74-63.596-150.22C295.118 78.362 401.236 40.03 511.37 40.03c260.248 0 471.968 211.724 471.968 471.968s-211.726 471.97-471.97 471.97c-120.118 0-234.562-45.15-322.252-127.136-87.27-81.588-140.01-191.916-148.502-310.658-.788-11.024-10.368-19.374-21.392-18.534-11.026.788-19.324 10.364-18.534 21.392C9.902 677.87 67.112 797.57 161.776 886.074 256.912 975.018 381.064 1024 511.368 1024c282.316 0 511.998-229.68 511.998-512-.002-282.32-229.682-512-511.998-512M150.74 381.952c-46.026 0-83.472-37.446-83.472-83.472 0-32.106 46.05-113.102 83.474-170.352a1290 1290 0 0 1 15.986 25.098 20 20 0 0 0 1.87 3.016c32.76 53.098 65.616 115.092 65.616 142.238-.002 46.026-37.448 83.472-83.474 83.472"/><path d="M425.12 272.862c-47.886 0-86.848 38.962-86.848 86.848 0 11.056 8.958 20.014 20.014 20.014s20.014-8.958 20.014-20.014c0-25.816 21.002-46.818 46.818-46.818s46.818 21.002 46.818 46.818c0 11.056 8.958 20.014 20.014 20.014s20.014-8.958 20.014-20.014c.004-47.886-38.956-86.848-86.844-86.848m291.228 86.848c0-25.816 21.004-46.818 46.822-46.818s46.818 21.002 46.818 46.818a20.01 20.01 0 0 0 20.014 20.014 20.01 20.01 0 0 0 20.014-20.014c0-47.886-38.962-86.848-86.848-86.848-47.888 0-86.85 38.962-86.85 86.848 0 11.056 8.958 20.014 20.014 20.014s20.016-8.958 20.016-20.014M363.79 643.2c0 120.846 98.314 219.162 219.16 219.162S802.11 764.048 802.11 643.2a20.01 20.01 0 0 0-20.014-20.014H383.804c-11.056 0-20.014 8.96-20.014 20.014m397.182 20.016c-9.98 89.388-86.01 159.116-178.022 159.116s-168.04-69.728-178.022-159.116zM.6359999999999992 475.016a20.014 20.014 0 1 0 40.028 0 20.014 20.014 0 1 0-40.028 0"/></svg>