<svg xmlns="http://www.w3.org/2000/svg" width="48" height="48" class="icon" viewBox="0 0 1024 1024"><path d="M512 959.1c-114.6 0-229.1-43.6-316.3-130.9-174.3-174.4-174.2-458.1.2-632.4C298.7 93 445.6 46.6 589 71.5c14.3 2.5 23.9 16.1 21.4 30.4s-16.1 23.9-30.4 21.4c-126.5-22-256.2 19-347 109.7-153.9 153.8-154 404.2-.2 558.1s404.2 154 558.1.2 154-404.2.2-558.2c-15.4-15.4-32-29.5-49.6-42.1-11.8-8.5-14.5-24.9-6-36.7s24.9-14.5 36.7-6c19.8 14.2 38.7 30.3 56.1 47.7 174.3 174.4 174.2 458.1-.2 632.5-87.1 87-201.6 130.6-316.1 130.6"/><path d="M270 410.7a42.8 42.8 0 1 0 85.6 0 42.8 42.8 0 1 0-85.6 0M673.1 410.9a42.5 42.5 0 1 0 85 0 42.5 42.5 0 1 0-85 0"/><path fill="#FFA786" d="M281.1 553.2v.4c0 127.5 103.3 231 230.9 231s231-103.3 231-230.9v-.4z"/><path d="M512 810.9s-.1 0 0 0c-141.9 0-257.3-115.5-257.2-257.3 0-7.9 3.2-26.2 32.7-26.3h82.4c67.1 0 160.4 0 236.9.1l133.6.1c28.6.1 28.9 26 28.9 26.3-.1 141.7-115.5 257.1-257.3 257.1M309 579.8c12.9 100.5 99 178.5 202.9 178.5h.1c103.9 0 190-77.9 203-178.4-82.1 0-324-.1-406-.1"/><path fill="#FFA786" d="M647.1 124.4a26.3 26.3 0 1 0 52.6 0 26.3 26.3 0 1 0-52.6 0"/></svg>